#Comment line ignore any data following # character 
#Hierarchical Translation and Rotation (.htr) file 
[Header]	
#Header keywords are followed by a single value 
FileType HTR		#Single word string
DataType HTRS		#Translation followed by rotation and scale data
FileVersion 1		#integer
NumSegments 84		#integer
NumFrames 2		#integer
DataFrameRate 30		#integer, data frame rate in this file
EulerRotationOrder ZYX
CalibrationUnits mm
RotationUnits Degrees
GlobalAxisofGravity Y
BoneLengthAxis Y
ScaleFactor 1.00
[SegmentNames&Hierarchy]
#CHILD	PARENT
MASTER GLOBAL
root MASTER
chest root
L_mid_tent01 root
R_mid_tent01 root
spine01 root
Bip01_Neck chest
L_humerus chest
R_humerus chest
weapon_bone chest
Bip01_Head Bip01_Neck
eye_left_bone Bip01_Head
eye_right_bone Bip01_Head
L_forearm L_humerus
L_front_hand L_forearm
L_weapon_bone L_forearm
L_front_hand01_01 L_front_hand
L_front_hand02_01 L_front_hand
L_front_hand03_01 L_front_hand
L_front_hand01_02 L_front_hand01_01
L_front_hand02_02 L_front_hand02_01
L_front_hand03_02 L_front_hand03_01
R_forearm R_humerus
R_front_hand R_forearm
R_weapon_bone R_forearm
R_front_hand01_01 R_front_hand
R_front_hand02_01 R_front_hand
R_front_hand03_01 R_front_hand
R_front_hand01_02 R_front_hand01_01
R_front_hand02_02 R_front_hand02_01
R_front_hand03_02 R_front_hand03_01
null_rope01_connect L_mid_tent01
Rope1_Seg01 null_rope01_connect
Rope1_Seg02 Rope1_Seg01
Rope1_Seg03 Rope1_Seg02
Rope1_Seg04 Rope1_Seg03
Rope1_Seg05 Rope1_Seg04
Rope1_Seg06 Rope1_Seg05
Rope1_Seg07 Rope1_Seg06
Rope1_Seg09 Rope1_Seg07
L_mid_hand01 Rope1_Seg09
L_mid_hand02 Rope1_Seg09
L_mid_hand03 Rope1_Seg09
null_rope02_connect R_mid_tent01
Rope2_Seg01 null_rope02_connect
Rope2_Seg02 Rope2_Seg01
Rope2_Seg03 Rope2_Seg02
Rope2_Seg04 Rope2_Seg03
Rope2_Seg05 Rope2_Seg04
Rope2_Seg06 Rope2_Seg05
Rope2_Seg07 Rope2_Seg06
Rope2_Seg09 Rope2_Seg07
R_mid_hand01 Rope2_Seg09
R_mid_hand02 Rope2_Seg09
R_mid_hand03 Rope2_Seg09
spine02 spine01
spine03 spine02
pelvis spine03
null_rope03_connect pelvis
null_rope04_connect pelvis
Rope3_Seg01 null_rope03_connect
Rope3_Seg02 Rope3_Seg01
Rope3_Seg03 Rope3_Seg02
Rope3_Seg04 Rope3_Seg03
Rope3_Seg05 Rope3_Seg04
Rope3_Seg06 Rope3_Seg05
Rope3_Seg07 Rope3_Seg06
Rope3_Seg08 Rope3_Seg07
Rope3_Seg09 Rope3_Seg08
R_rear_hand01 Rope3_Seg09
R_rear_hand02 Rope3_Seg09
R_rear_hand03 Rope3_Seg09
Rope4_Seg01 null_rope04_connect
Rope4_Seg02 Rope4_Seg01
Rope4_Seg03 Rope4_Seg02
Rope4_Seg04 Rope4_Seg03
Rope4_Seg05 Rope4_Seg04
Rope4_Seg06 Rope4_Seg05
Rope4_Seg07 Rope4_Seg06
Rope4_Seg08 Rope4_Seg07
Rope4_Seg09 Rope4_Seg08
L_rear_hand01 Rope4_Seg09
L_rear_hand02 Rope4_Seg09
L_rear_hand03 Rope4_Seg09
[BasePosition]
#SegmentName Tx, Ty, Tz, Rx, Ry, Rz, BoneLength
MASTER 0.000000 0.000000 0.000000 -90.000000 0.000000 0.000000 10.000000 
root 0.000000 0.000000 0.000000 0.000000 0.000000 0.000000 10.000000 
chest 0.000000 0.000000 0.000000 0.000000 0.000000 0.000000 10.000000 
L_mid_tent01 0.000000 0.000000 0.000000 0.000000 0.000000 0.000000 10.000000 
R_mid_tent01 0.000000 0.000000 0.000000 0.000000 0.000000 0.000000 10.000000 
spine01 0.000000 0.000000 0.000000 0.000000 0.000000 0.000000 10.000000 
Bip01_Neck 0.000000 0.000000 0.000000 0.000000 0.000000 0.000000 10.000000 
L_humerus 0.000000 0.000000 0.000000 0.000000 0.000000 0.000000 10.000000 
R_humerus 0.000000 0.000000 0.000000 0.000000 0.000000 0.000000 10.000000 
weapon_bone 0.000000 0.000000 0.000000 0.000000 0.000000 0.000000 10.000000 
Bip01_Head 0.000000 0.000000 0.000000 0.000000 0.000000 0.000000 10.000000 
eye_left_bone 0.000000 0.000000 0.000000 0.000000 0.000000 0.000000 10.000000 
eye_right_bone 0.000000 0.000000 0.000000 0.000000 0.000000 0.000000 10.000000 
L_forearm 0.000000 0.000000 0.000000 0.000000 0.000000 0.000000 10.000000 
L_front_hand 0.000000 0.000000 0.000000 0.000000 0.000000 0.000000 10.000000 
L_weapon_bone 0.000000 0.000000 0.000000 0.000000 0.000000 0.000000 10.000000 
L_front_hand01_01 0.000000 0.000000 0.000000 0.000000 0.000000 0.000000 10.000000 
L_front_hand02_01 0.000000 0.000000 0.000000 0.000000 0.000000 0.000000 10.000000 
L_front_hand03_01 0.000000 0.000000 0.000000 0.000000 0.000000 0.000000 10.000000 
L_front_hand01_02 0.000000 0.000000 0.000000 0.000000 0.000000 0.000000 10.000000 
L_front_hand02_02 0.000000 0.000000 0.000000 0.000000 0.000000 0.000000 10.000000 
L_front_hand03_02 0.000000 0.000000 0.000000 0.000000 0.000000 0.000000 10.000000 
R_forearm 0.000000 0.000000 0.000000 0.000000 0.000000 0.000000 10.000000 
R_front_hand 0.000000 0.000000 0.000000 0.000000 0.000000 0.000000 10.000000 
R_weapon_bone 0.000000 0.000000 0.000000 0.000000 0.000000 0.000000 10.000000 
R_front_hand01_01 0.000000 0.000000 0.000000 0.000000 0.000000 0.000000 10.000000 
R_front_hand02_01 0.000000 0.000000 0.000000 0.000000 0.000000 0.000000 10.000000 
R_front_hand03_01 0.000000 0.000000 0.000000 0.000000 0.000000 0.000000 10.000000 
R_front_hand01_02 0.000000 0.000000 0.000000 0.000000 0.000000 0.000000 10.000000 
R_front_hand02_02 0.000000 0.000000 0.000000 0.000000 0.000000 0.000000 10.000000 
R_front_hand03_02 0.000000 0.000000 0.000000 0.000000 0.000000 0.000000 10.000000 
null_rope01_connect 0.000000 0.000000 0.000000 0.000000 0.000000 0.000000 10.000000 
Rope1_Seg01 0.000000 0.000000 0.000000 0.000000 0.000000 0.000000 10.000000 
Rope1_Seg02 0.000000 0.000000 0.000000 0.000000 0.000000 0.000000 10.000000 
Rope1_Seg03 0.000000 0.000000 0.000000 0.000000 0.000000 0.000000 10.000000 
Rope1_Seg04 0.000000 0.000000 0.000000 0.000000 0.000000 0.000000 10.000000 
Rope1_Seg05 0.000000 0.000000 0.000000 0.000000 0.000000 0.000000 10.000000 
Rope1_Seg06 0.000000 0.000000 0.000000 0.000000 0.000000 0.000000 10.000000 
Rope1_Seg07 0.000000 0.000000 0.000000 0.000000 0.000000 0.000000 10.000000 
Rope1_Seg09 0.000000 0.000000 0.000000 0.000000 0.000000 0.000000 10.000000 
L_mid_hand01 0.000000 0.000000 0.000000 0.000000 0.000000 0.000000 10.000000 
L_mid_hand02 0.000000 0.000000 0.000000 0.000000 0.000000 0.000000 10.000000 
L_mid_hand03 0.000000 0.000000 0.000000 0.000000 0.000000 0.000000 10.000000 
null_rope02_connect 0.000000 0.000000 0.000000 0.000000 0.000000 0.000000 10.000000 
Rope2_Seg01 0.000000 0.000000 0.000000 0.000000 0.000000 0.000000 10.000000 
Rope2_Seg02 0.000000 0.000000 0.000000 0.000000 0.000000 0.000000 10.000000 
Rope2_Seg03 0.000000 0.000000 0.000000 0.000000 0.000000 0.000000 10.000000 
Rope2_Seg04 0.000000 0.000000 0.000000 0.000000 0.000000 0.000000 10.000000 
Rope2_Seg05 0.000000 0.000000 0.000000 0.000000 0.000000 0.000000 10.000000 
Rope2_Seg06 0.000000 0.000000 0.000000 0.000000 0.000000 0.000000 10.000000 
Rope2_Seg07 0.000000 0.000000 0.000000 0.000000 0.000000 0.000000 10.000000 
Rope2_Seg09 0.000000 0.000000 0.000000 0.000000 0.000000 0.000000 10.000000 
R_mid_hand01 0.000000 0.000000 0.000000 0.000000 0.000000 0.000000 10.000000 
R_mid_hand02 0.000000 0.000000 0.000000 0.000000 0.000000 0.000000 10.000000 
R_mid_hand03 0.000000 0.000000 0.000000 0.000000 0.000000 0.000000 10.000000 
spine02 0.000000 0.000000 0.000000 0.000000 0.000000 0.000000 10.000000 
spine03 0.000000 0.000000 0.000000 0.000000 0.000000 0.000000 10.000000 
pelvis 0.000000 0.000000 0.000000 0.000000 0.000000 0.000000 10.000000 
null_rope03_connect 0.000000 0.000000 0.000000 0.000000 0.000000 0.000000 10.000000 
null_rope04_connect 0.000000 0.000000 0.000000 0.000000 0.000000 0.000000 10.000000 
Rope3_Seg01 0.000000 0.000000 0.000000 0.000000 0.000000 0.000000 10.000000 
Rope3_Seg02 0.000000 0.000000 0.000000 0.000000 0.000000 0.000000 10.000000 
Rope3_Seg03 0.000000 0.000000 0.000000 0.000000 0.000000 0.000000 10.000000 
Rope3_Seg04 0.000000 0.000000 0.000000 0.000000 0.000000 0.000000 10.000000 
Rope3_Seg05 0.000000 0.000000 0.000000 0.000000 0.000000 0.000000 10.000000 
Rope3_Seg06 0.000000 0.000000 0.000000 0.000000 0.000000 0.000000 10.000000 
Rope3_Seg07 0.000000 0.000000 0.000000 0.000000 0.000000 0.000000 10.000000 
Rope3_Seg08 0.000000 0.000000 0.000000 0.000000 0.000000 0.000000 10.000000 
Rope3_Seg09 0.000000 0.000000 0.000000 0.000000 0.000000 0.000000 10.000000 
R_rear_hand01 0.000000 0.000000 0.000000 0.000000 0.000000 0.000000 10.000000 
R_rear_hand02 0.000000 0.000000 0.000000 0.000000 0.000000 0.000000 10.000000 
R_rear_hand03 0.000000 0.000000 0.000000 0.000000 0.000000 0.000000 10.000000 
Rope4_Seg01 0.000000 0.000000 0.000000 0.000000 0.000000 0.000000 10.000000 
Rope4_Seg02 0.000000 0.000000 0.000000 0.000000 0.000000 0.000000 10.000000 
Rope4_Seg03 0.000000 0.000000 0.000000 0.000000 0.000000 0.000000 10.000000 
Rope4_Seg04 0.000000 0.000000 0.000000 0.000000 0.000000 0.000000 10.000000 
Rope4_Seg05 0.000000 0.000000 0.000000 0.000000 0.000000 0.000000 10.000000 
Rope4_Seg06 0.000000 0.000000 0.000000 0.000000 0.000000 0.000000 10.000000 
Rope4_Seg07 0.000000 0.000000 0.000000 0.000000 0.000000 0.000000 10.000000 
Rope4_Seg08 0.000000 0.000000 0.000000 0.000000 0.000000 0.000000 10.000000 
Rope4_Seg09 0.000000 0.000000 0.000000 0.000000 0.000000 0.000000 10.000000 
L_rear_hand01 0.000000 0.000000 0.000000 0.000000 0.000000 0.000000 10.000000 
L_rear_hand02 0.000000 0.000000 0.000000 0.000000 0.000000 0.000000 10.000000 
L_rear_hand03 0.000000 0.000000 0.000000 0.000000 0.000000 0.000000 10.000000 
#Beginning of Data. Separated by tabs
#Fr	Tx	Ty	Tz	Rx	Ry	Rz	SF
[MASTER]
35 0.000000 0.000000 0.000000 0.001660 0.001660 0.001660 0.000000
36 0.000000 0.000000 0.000000 0.001660 0.001660 0.001660 0.000000
[root]
35 -23.115313 -62.822109 1469.436035 -89.013649 -3.882908 -87.726433 1470.959961
36 -23.115313 -62.822109 1467.136108 -88.926331 -4.039437 -88.028313 1468.662354
[chest]
35 -84.512650 -34.090519 0.000000 -0.307809 -0.743092 156.385437 91.129311
36 -84.512650 -34.090519 0.000000 -0.307809 -0.743092 156.385437 91.129311
[L_mid_tent01]
35 23.228750 24.509907 -223.761200 -12.862336 8.145789 -16.130568 226.294907
36 23.228750 24.509907 -223.761200 -12.435567 4.505000 -13.071846 226.294907
[R_mid_tent01]
35 23.228794 24.509907 226.238495 -158.173309 1.962869 1.463261 228.744751
36 23.228794 24.509907 226.238495 -158.901917 0.300802 0.374630 228.744751
[spine01]
35 -0.361383 -0.195265 0.000000 0.001815 0.001488 11.320962 0.410763
36 -0.361383 -0.195265 0.000000 0.001815 0.001488 11.320962 0.410763
[Bip01_Neck]
35 165.484543 71.581718 0.000119 175.896118 1.177290 24.871183 180.302734
36 165.484543 71.581718 0.000119 175.896118 1.177290 24.871183 180.302734
[L_humerus]
35 -13.983130 -135.272980 -120.471481 149.628769 9.923238 -156.213867 181.680161
36 -13.983130 -135.272980 -120.471481 149.628754 9.923236 -156.213867 181.680161
[R_humerus]
35 -13.983309 -135.273102 125.287651 -156.699188 -11.743878 -154.898071 184.909012
36 -13.983309 -135.273102 125.287651 -156.699188 -11.743878 -154.898071 184.909012
[weapon_bone]
35 235.964890 -300.705902 0.000000 0.000000 -89.951546 -128.212341 382.234833
36 235.964890 -300.705902 0.000000 0.000000 -89.951546 -128.212341 382.234833
[Bip01_Head]
35 179.663727 77.988960 -1.800939 0.758605 5.943101 -40.809685 195.868774
36 179.663727 77.988953 -1.800939 1.063108 6.050646 -40.790581 195.868774
[eye_left_bone]
35 -24.626970 125.451866 -64.772606 0.000000 -90.000000 -99.840431 143.318359
36 -24.626970 125.451866 -64.772606 0.000000 -90.000000 -99.840431 143.318359
[eye_right_bone]
35 -24.626970 125.451866 64.327362 0.000000 -89.965736 80.156380 143.117676
36 -24.626970 125.451866 64.327362 0.000000 -89.965736 80.156380 143.117676
[L_forearm]
35 322.776093 0.000000 -0.000119 0.000842 -0.002191 -132.067245 322.776093
36 322.776093 0.000000 -0.000119 0.000842 -0.002191 -132.067245 322.776093
[L_front_hand]
35 241.149185 -0.042021 -3.300071 64.693832 -1.501085 -39.931282 241.171753
36 241.149185 -0.042021 -3.300071 65.428619 -1.502553 -39.931107 241.171753
[L_weapon_bone]
35 156.183838 0.000000 0.000000 0.000014 0.000007 0.000001 156.183838
36 156.183838 0.000000 0.000000 0.000014 0.000007 0.000001 156.183838
[L_front_hand01_01]
35 86.095154 20.947098 -0.655860 0.032109 -0.599022 34.720291 88.609184
36 86.095154 20.947098 -0.655860 0.060688 -0.597549 32.241070 88.609184
[L_front_hand02_01]
35 86.935165 -11.437475 24.513514 121.859947 -30.991072 -18.092558 91.046425
36 86.935165 -11.437475 24.513514 121.114189 -28.877203 -16.598837 91.046425
[L_front_hand03_01]
35 86.637497 -14.123976 -20.424902 -123.037773 29.527868 -20.442749 90.126129
36 86.637497 -14.123976 -20.424902 -122.310097 27.441528 -18.919086 90.126129
[L_front_hand01_02]
35 71.020905 -0.000179 0.000030 0.000334 -0.002323 -106.379684 71.020905
36 71.020905 -0.000179 0.000030 0.000334 -0.002323 -106.379684 71.020905
[L_front_hand02_02]
35 71.020927 -0.000119 0.000060 0.000334 -0.002323 -106.379684 71.020927
36 71.020927 -0.000119 0.000060 0.000334 -0.002323 -106.379684 71.020927
[L_front_hand03_02]
35 71.020905 -0.000060 0.000060 0.000334 -0.002323 -106.379684 71.020905
36 71.020905 -0.000060 0.000060 0.000334 -0.002323 -106.379684 71.020905
[R_forearm]
35 322.776428 -0.000060 0.000030 0.244684 0.084396 -126.001312 322.776428
36 322.776428 -0.000060 0.000030 0.244684 0.084396 -126.001312 322.776428
[R_front_hand]
35 238.847015 -0.006795 2.210259 37.275047 0.238332 -48.450356 238.857239
36 238.847015 -0.006795 2.210259 37.069504 0.236733 -48.448822 238.857239
[R_weapon_bone]
35 155.664093 0.002503 -0.000030 0.003487 0.001180 -90.988930 155.664078
36 155.664093 0.002503 -0.000030 0.003487 0.001180 -90.988930 155.664078
[R_front_hand01_01]
35 87.624611 14.231146 22.918642 -142.382645 -55.162724 47.262672 91.683487
36 87.624611 14.231146 22.918642 -134.079651 -49.424248 36.789650 91.683487
[R_front_hand02_01]
35 89.356956 14.367283 -19.491137 143.048462 53.560753 49.830132 92.579636
36 89.356956 14.367283 -19.491137 135.095444 47.922230 39.583775 92.579636
[R_front_hand03_01]
35 87.286232 -22.307278 -0.143439 0.093724 -0.445458 -66.670746 90.091743
36 87.286232 -22.307278 -0.143439 0.027006 -0.452659 -58.094570 90.091743
[R_front_hand01_02]
35 71.020905 0.000060 0.000119 0.002298 0.000481 66.372314 71.020905
36 71.020905 0.000060 0.000119 0.002345 0.000110 84.644501 71.020905
[R_front_hand02_02]
35 71.020844 -0.000030 -0.000119 0.002298 0.000481 66.372314 71.020836
36 71.020844 -0.000030 -0.000119 0.002345 0.000110 84.644501 71.020836
[R_front_hand03_02]
35 71.020905 0.000000 0.000030 0.002298 0.000481 66.372314 71.020905
36 71.020905 0.000000 0.000030 0.002345 0.000110 84.644501 71.020905
[null_rope01_connect]
35 328.732483 0.000000 -0.000238 -131.156525 -77.245598 -119.677811 328.732483
36 328.732483 0.000000 -0.000238 -148.370514 -78.826286 -104.908699 328.732483
[Rope1_Seg01]
35 0.000000 0.000000 0.000000 93.440964 -15.695129 -160.477570 0.000000
36 0.000000 0.000000 0.000000 96.083824 -13.552841 -162.783325 0.000000
[Rope1_Seg02]
35 139.999863 -0.000179 0.000000 -7.752262 10.753503 5.397806 139.999863
36 139.999863 -0.000179 0.000000 -6.256518 8.678608 4.440579 139.999863
[Rope1_Seg03]
35 139.999924 0.000060 -0.000060 -14.808972 19.044844 13.782630 139.999924
36 139.999924 0.000060 -0.000060 -11.415498 14.412261 9.792891 139.999924
[Rope1_Seg04]
35 139.999924 -0.000060 -0.000119 -10.834901 15.712094 38.417809 139.999924
36 139.999924 -0.000060 -0.000119 -12.409718 15.079031 25.557709 139.999924
[Rope1_Seg05]
35 139.999832 0.000119 -0.000060 -1.669032 9.355671 16.544205 139.999832
36 139.999832 0.000119 -0.000060 -5.065273 9.434495 24.125351 139.999832
[Rope1_Seg06]
35 139.999954 0.000119 -0.000060 -3.465713 17.814396 -5.807115 139.999954
36 139.999954 0.000119 -0.000060 -3.554430 18.153427 6.503377 139.999954
[Rope1_Seg07]
35 139.999985 0.000060 0.000000 -4.959710 14.745627 -6.672947 139.999985
36 139.999985 0.000060 0.000000 -4.863317 15.092799 1.364503 139.999985
[Rope1_Seg09]
35 121.602913 0.000119 -0.000089 -89.793175 -1.359789 0.847147 121.602913
36 121.602913 0.000119 -0.000089 -89.793175 -1.359789 0.847147 121.602913
[L_mid_hand01]
35 103.859421 1.038730 8.195221 106.855484 -31.239275 -9.461397 104.187431
36 103.859421 1.038730 8.195221 106.855484 -31.239275 -9.461397 104.187431
[L_mid_hand02]
35 105.572853 -4.139662 -10.864139 -142.331345 25.752670 -28.774628 106.211075
36 105.572853 -4.139662 -10.864139 -142.331345 25.752670 -28.774628 106.211075
[L_mid_hand03]
35 104.641464 17.579376 -3.913581 -16.122810 9.734291 34.223598 106.179977
36 104.641464 17.579376 -3.913581 -16.122810 9.734291 34.223598 106.179977
[null_rope02_connect]
35 328.732849 0.000179 -0.000119 -176.809509 67.087677 -89.124596 328.732849
36 328.732849 0.000179 -0.000119 -172.274063 67.641457 -85.605621 328.732849
[Rope2_Seg01]
35 0.000131 0.000098 -0.000066 96.484703 -9.114429 -139.489532 0.000176
36 0.000130 0.000099 -0.000064 98.773865 -14.582338 -146.854980 0.000175
[Rope2_Seg02]
35 139.999741 -0.000060 -0.000119 -0.488504 26.942856 0.352546 139.999756
36 139.999741 -0.000060 -0.000119 0.738155 20.594259 -1.508012 139.999756
[Rope2_Seg03]
35 140.000107 0.000030 0.000000 -9.670960 33.333290 1.275607 140.000107
36 140.000107 0.000030 0.000000 -4.334109 31.783377 -2.761043 140.000107
[Rope2_Seg04]
35 139.999802 0.000000 -0.000060 -14.164568 17.182505 3.719383 139.999802
36 139.999802 0.000000 -0.000060 -13.500155 27.367535 -0.050849 139.999802
[Rope2_Seg05]
35 139.999985 -0.000060 0.000119 6.676086 -4.260829 -3.241625 139.999985
36 139.999985 -0.000060 0.000119 -0.815681 2.692661 -0.675490 139.999985
[Rope2_Seg06]
35 139.999893 -0.000030 -0.000119 11.931704 -12.418324 -6.219215 139.999893
36 139.999893 -0.000030 -0.000119 8.845879 -6.887999 -3.901464 139.999893
[Rope2_Seg07]
35 139.999893 0.000060 -0.000060 3.275152 -5.390349 -1.683130 139.999893
36 139.999893 0.000060 -0.000060 2.861780 -2.326447 -1.481596 139.999893
[Rope2_Seg09]
35 121.338966 0.000089 -0.000060 33.793236 -1.359788 -0.847141 121.338966
36 121.338966 0.000089 -0.000060 33.793236 -1.359788 -0.847141 121.338966
[R_mid_hand01]
35 104.680779 11.144459 -10.335981 -41.523792 25.424656 28.595957 105.778534
36 104.680779 11.144459 -10.335981 -41.523792 25.424656 28.595957 105.778534
[R_mid_hand02]
35 104.070427 2.443552 8.231699 72.847389 -32.746803 10.013901 104.424065
36 104.070427 2.443552 8.231699 72.847389 -32.746803 10.013901 104.424065
[R_mid_hand03]
35 106.028137 -11.221827 -5.996406 -167.901306 10.259192 -37.009720 106.788818
36 106.028137 -11.221827 -5.996406 -167.901306 10.259192 -37.009720 106.788818
[spine02]
35 129.756927 0.001550 0.000119 0.001147 -1.797837 -7.854275 129.756927
36 129.756927 0.001550 0.000119 0.001147 -1.797837 -7.854275 129.756927
[spine03]
35 79.115631 0.000000 -0.000119 1.459971 -2.848092 23.765963 79.115631
36 79.115631 0.000000 -0.000119 1.459971 -2.848092 23.765959 79.115631
[pelvis]
35 169.435242 0.051022 0.000000 -0.000005 0.000003 -4.322055 169.435257
36 169.435242 0.051022 0.000000 -0.000005 0.000003 -4.322055 169.435257
[null_rope03_connect]
35 -1.257226 -2.466202 137.391083 60.990223 -82.822334 9.867290 137.418976
36 -1.257226 -2.466202 137.391083 59.256569 -83.038269 11.772101 137.418976
[null_rope04_connect]
35 -1.259640 -2.480268 -137.844437 60.990223 -82.822334 9.867290 137.872513
36 -1.259640 -2.480268 -137.844437 59.256569 -83.038269 11.772101 137.872513
[Rope3_Seg01]
35 0.000000 0.000000 0.000000 -131.787781 -11.556839 -72.877975 0.000000
36 0.000000 0.000000 0.000000 -128.589233 -12.394755 -88.464539 0.000000
[Rope3_Seg02]
35 139.999924 -0.000119 0.000060 0.398147 -2.150483 1.542498 139.999924
36 139.999924 -0.000119 0.000060 -0.207772 -5.140569 -0.959371 139.999924
[Rope3_Seg03]
35 139.999924 -0.000119 0.000119 0.435699 -2.538134 1.847170 139.999924
36 139.999924 -0.000119 0.000119 0.058173 -6.064318 -1.160376 139.999924
[Rope3_Seg04]
35 139.999924 0.000119 0.000000 0.492253 -3.703235 2.123514 139.999924
36 139.999924 0.000119 0.000000 0.579617 -8.266405 -1.889902 139.999924
[Rope3_Seg05]
35 139.999924 -0.000238 0.000060 1.629588 -10.200273 1.624084 139.999924
36 139.999924 -0.000238 0.000060 2.982891 -14.316259 -4.312932 139.999924
[Rope3_Seg06]
35 139.999893 -0.000119 -0.000060 0.824700 -0.096752 4.042506 139.999893
36 139.999893 -0.000119 -0.000060 1.467441 -3.237058 0.657859 139.999893
[Rope3_Seg07]
35 139.999771 0.000060 -0.000119 1.792227 18.945646 7.797995 139.999771
36 139.999771 0.000060 -0.000119 -0.303299 13.290757 7.136019 139.999771
[Rope3_Seg08]
35 139.999985 -0.000060 0.000000 3.961634 15.324460 6.099457 139.999985
36 139.999985 -0.000060 0.000000 1.421040 13.232939 7.366226 139.999985
[Rope3_Seg09]
35 90.185997 -0.000179 -0.000060 89.793228 -1.359877 -0.847183 90.185997
36 90.185997 -0.000179 -0.000060 89.793228 -1.359877 -0.847183 90.185997
[R_rear_hand01]
35 103.366196 -6.073594 -10.757982 -161.551193 16.666374 -30.088671 104.101845
36 103.366196 -6.073594 -10.757982 -161.551193 16.666374 -30.088671 104.101845
[R_rear_hand02]
35 100.509819 12.039542 -7.992327 -34.280552 19.289745 28.875523 101.543350
36 100.509819 12.039542 -7.992327 -34.280552 19.289745 28.875523 101.543350
[R_rear_hand03]
35 101.539970 5.215704 5.435467 83.366440 -30.933914 7.284830 101.819031
36 101.539970 5.215704 5.435467 83.366440 -30.933914 7.284830 101.819031
[Rope4_Seg01]
35 0.000000 0.000000 0.000000 45.475517 -6.350888 -92.325905 0.000000
36 0.000000 0.000000 0.000000 46.262974 -1.705250 -121.849632 0.000000
[Rope4_Seg02]
35 139.999985 0.000060 0.000119 1.267141 12.397746 1.756368 139.999985
36 139.999985 0.000060 0.000119 3.637775 20.621969 16.770313 139.999985
[Rope4_Seg03]
35 139.999924 0.000000 -0.000238 0.921384 8.595259 2.863618 139.999924
36 139.999924 0.000000 -0.000238 0.538473 14.998537 12.187066 139.999924
[Rope4_Seg04]
35 139.999985 0.000000 0.000119 0.481098 5.855847 2.497658 139.999985
36 139.999985 0.000000 0.000119 -1.453948 10.260234 9.237509 139.999985
[Rope4_Seg05]
35 139.999802 -0.000060 -0.000119 1.199883 -1.371594 -2.560237 139.999802
36 139.999802 -0.000060 -0.000119 0.255357 1.439794 0.509397 139.999802
[Rope4_Seg06]
35 139.999924 0.000000 0.000060 2.357949 -8.259325 -8.110302 139.999924
36 139.999924 0.000000 0.000060 2.647911 -3.499750 -5.376879 139.999924
[Rope4_Seg07]
35 139.999802 0.000000 0.000000 2.592619 -13.474908 -12.261623 139.999802
36 139.999802 0.000000 0.000000 4.761755 -10.454149 -13.430289 139.999802
[Rope4_Seg08]
35 139.999924 0.000000 0.000119 -1.038798 -7.669495 -7.066433 139.999924
36 139.999924 0.000000 0.000119 0.132205 -7.064829 -8.457644 139.999924
[Rope4_Seg09]
35 90.185791 0.000060 0.000060 -135.617828 2.228885 0.850567 90.185791
36 90.185791 0.000060 0.000060 -135.617828 2.228885 0.850567 90.185791
[L_rear_hand01]
35 101.696655 -8.392275 -7.654577 -34.454281 -18.946800 151.655121 102.329041
36 101.696655 -8.392275 -7.654577 -34.454281 -18.946800 151.655121 102.329041
[L_rear_hand02]
35 102.726799 -1.568258 5.773216 83.407906 30.330435 172.796509 102.900848
36 102.726799 -1.568258 5.773216 83.407906 30.330435 172.796509 102.900848
[L_rear_hand03]
35 104.552910 9.721220 -10.420293 -161.379868 -16.473232 -150.512238 105.519653
36 104.552910 9.721220 -10.420293 -161.379868 -16.473232 -150.512238 105.519653
